<svg xmlns="http://www.w3.org/2000/svg" viewBox="0 0 100 100" width="100px" height="100px"><path fill="#fefdef" d="M68,86c0,0,2-4,2-10c0-16-15-25.5-15-25.5L38,20c0,0-3.5-6-11.5-6c-6.5,0-7.5,2-11,2	c-2,0-3.5-1-3.5-1c0,5,2,7,2,9.5C14,45,36,50,36,70.5C36,80,32,86,32,86H68z"/><path fill="#cf82b6" d="M87.5,29.5c0,0-2.5-5-14-5c-1.566,0-31,0-31,0V25h-5v-0.5h-3c-1.105,0-2,0.895-2,2s0.895,2,2,2h49	L87.5,29.5z"/><path fill="#eddc67" d="M34.5,28.5c0,4.5-5.5,6-6,6c0,0,4,17,20,17c19,0,23-22,35-22v-1H34.5z"/><path fill="#e0a6ca" d="M38,20.5c-1.933,0-3.5,1.567-3.5,3.5v0.5h3V25h5v-0.5c0,0,29,0,31,0c11.5,0,14,5,14,5h0.386	C87.153,24.136,82.565,20,77,20H38V20.5z"/><circle cx="26.5" cy="23.5" r="2.5" fill="#1f212b"/><path fill="#1f212b" d="M88,32c-0.309,0-0.607-0.144-0.8-0.4c-0.046-0.059-1.271-1.6-3.7-1.6v-2	c1.335,0,2.418,0.343,3.249,0.77C85.733,24.325,81.748,21,77,21H38v-2h39c6.617,0,12,5.383,12,12c0,0.431-0.275,0.813-0.684,0.948	C88.212,31.983,88.105,32,88,32z"/><path fill="#1f212b" d="M32,87c-0.19,0-0.383-0.055-0.553-0.168c-0.46-0.305-0.585-0.926-0.28-1.386	C31.206,85.389,35,79.554,35,70.5c0-9.878-5.225-15.935-10.757-22.347C18.715,41.746,13,35.122,13,24.5	c0-0.86-0.303-1.698-0.686-2.758C11.729,20.121,11,18.104,11,15c0-0.369,0.203-0.708,0.528-0.882	c0.324-0.174,0.719-0.155,1.026,0.05C12.563,14.174,13.848,15,15.5,15c1.313,0,2.225-0.316,3.379-0.717	C20.529,13.712,22.583,13,26.5,13c8.477,0,12.209,6.23,12.364,6.496c0.278,0.478,0.117,1.09-0.36,1.368	c-0.479,0.277-1.089,0.116-1.368-0.36C37.005,20.281,33.796,15,26.5,15c-3.581,0-5.379,0.623-6.965,1.174	C18.308,16.599,17.15,17,15.5,17c-0.927,0-1.758-0.186-2.424-0.409c0.185,1.883,0.675,3.242,1.12,4.472	C14.609,22.208,15,23.289,15,24.5c0,9.878,5.225,15.935,10.757,22.347C31.285,53.254,37,59.878,37,70.5	c0,9.691-3.998,15.8-4.168,16.055C32.64,86.844,32.323,87,32,87z"/><path fill="#1f212b" d="M87.5,30c-0.184,0-0.36-0.102-0.448-0.276C87.03,29.68,84.487,25,73.5,25h-31	c-0.276,0-0.5-0.224-0.5-0.5s0.224-0.5,0.5-0.5h31c11.675,0,14.339,5.061,14.447,5.276c0.124,0.247,0.023,0.547-0.224,0.671	C87.652,29.983,87.576,30,87.5,30z"/><path fill="#1f212b" d="M35,24.5h-1V24c0-2.206,1.794-4,4-4v1c-1.654,0-3,1.346-3,3V24.5z"/><path fill="#1f212b" d="M83.5,29h-49c-1.378,0-2.5-1.121-2.5-2.5s1.122-2.5,2.5-2.5h3c0.276,0,0.5,0.224,0.5,0.5	S37.776,25,37.5,25h-3c-0.827,0-1.5,0.673-1.5,1.5s0.673,1.5,1.5,1.5h49c0.276,0,0.5,0.224,0.5,0.5S83.776,29,83.5,29z"/><path fill="#1f212b" d="M48.5,52c-16.208,0-20.446-17.212-20.487-17.386c-0.035-0.148,0-0.305,0.095-0.425S28.347,34,28.5,34	c0.552-0.036,5.5-1.474,5.5-5.5h1c0,4.159-4.215,5.922-5.878,6.376C29.935,37.627,34.606,51,48.5,51	c10.358,0,16.219-6.751,21.39-12.707C74.039,33.514,77.958,29,83.5,29v1c-5.085,0-8.686,4.146-12.854,8.949	C65.334,45.066,59.314,52,48.5,52z"/><path fill="#1f212b" d="M56.22,50.118c-0.693,0.263-1.416,0.487-2.161,0.68c0.068,0.217,0.199,0.416,0.406,0.547	C54.609,51.437,69,60.755,69,76c0,5.666-1.876,9.516-1.896,9.555c-0.245,0.494-0.044,1.094,0.45,1.34C67.698,86.966,67.851,87,68,87	c0.366,0,0.72-0.202,0.895-0.553C68.98,86.275,71,82.165,71,76C71,61.424,59.236,52.234,56.22,50.118z"/><circle cx="68" cy="86" r="1" fill="#1f212b"/><path fill="#1f212b" d="M40.5,25h-1c-0.276,0-0.5-0.224-0.5-0.5s0.224-0.5,0.5-0.5h1c0.276,0,0.5,0.224,0.5,0.5	S40.776,25,40.5,25z"/></svg>