<svg xmlns="http://www.w3.org/2000/svg" viewBox="0 0 100 100" width="100px" height="100px"><path fill="#a2b4cc" d="M29,31.5l9,3.5h-8.523c0.183,1.59,0.332,3.249,0.42,5L42,45H29.99	c-0.098,7.87-1.332,14.342-2.655,19.078C27.695,64.032,28.073,64,28.493,64c2.686,0,4.051,1.016,5.371,1.998	C35.188,66.983,36.554,68,39.239,68c2.687,0,4.053-1.017,5.373-2c1.323-0.983,2.688-2,5.375-2c2.689,0,4.056,1.017,5.377,2.001	C56.686,66.984,58.052,68,60.739,68c2.686,0,4.051-1.016,5.371-1.998C67.434,65.017,68.8,64,71.488,64	c1.777,0,2.972,0.447,3.963,1.031C71.838,38.674,50.583,17.732,24,15c0,0,3.286,6.051,4.992,16.499L29,31.5z"/><path fill="#8e9cb3" d="M67.06,65.323C68.143,64.599,69.426,64,71.488,64c1.777,0,2.972,0.447,3.963,1.031	C71.838,38.674,50.583,17.732,24,15c0,0,1.017,1.876,2.212,5.333C48.578,23.83,64.285,41.476,67.06,65.323z"/><path fill="#1f212b" d="M61.7,33.2C51.88,22.31,38.53,15.49,24.1,14c-0.36-0.03-0.72,0.14-0.93,0.45	c-0.21,0.3-0.23,0.7-0.05,1.03c0.03,0.06,3.23,6.05,4.88,16.18c0.06,0.36,0.32,0.66,0.66,0.78L32.67,34h-3.19	c-0.29,0-0.56,0.12-0.75,0.33c-0.19,0.22-0.28,0.5-0.25,0.78c0.2,1.72,0.34,3.34,0.42,4.94c0.02,0.39,0.26,0.73,0.61,0.87L36.96,44	h-6.97c-0.55,0-0.99,0.44-1,0.99c-0.1,8.02-1.41,14.6-2.77,19.31c0.62-0.18,1.34-0.29,2.19-0.3c1.24-4.56,2.38-10.65,2.56-18H42	c0.48,0,0.89-0.34,0.98-0.81c0.09-0.46-0.16-0.93-0.6-1.11l-11.52-4.76c-0.06-1.09-0.15-2.19-0.27-3.32H38	c0.48,0,0.89-0.34,0.98-0.82c0.09-0.47-0.17-0.94-0.62-1.11l-8.48-3.3c-1.21-7.12-3.12-12.12-4.2-14.56	c25.42,3.41,45.04,23.28,48.7,48.29c0.85,0.34,1.54,0.8,2.18,1.28C75.09,53.72,69.94,42.35,61.7,33.2z"/><path fill="#1f212b" d="M67.98,64.79c-0.34,0.16-0.65,0.35-0.94,0.54C64.86,47.31,55.02,32.18,40.28,24.8	c-0.25-0.13-0.35-0.43-0.23-0.67c0.13-0.25,0.43-0.35,0.67-0.23C55.66,31.38,65.66,46.62,67.98,64.79z"/><path fill="#1f212b" d="M68.5,73c0,0.28-0.22,0.5-0.5,0.5s-0.5-0.22-0.5-0.5c0-0.33,0-0.67-0.02-1h1.01	C68.5,72.33,68.5,72.67,68.5,73z"/><path fill="#1f212b" d="M35.5,22.692c-0.057,0-0.114-0.01-0.171-0.03c-0.932-0.338-1.902-0.653-2.969-0.962	c-0.265-0.077-0.417-0.354-0.341-0.62s0.351-0.42,0.62-0.341c1.087,0.315,2.079,0.637,3.031,0.983	c0.26,0.094,0.394,0.381,0.299,0.641C35.896,22.566,35.704,22.692,35.5,22.692z"/><path fill="#1f212b" d="M30.5,21.181c-0.039,0-0.079-0.005-0.119-0.015c-0.219-0.054-0.439-0.102-0.661-0.15l-0.329-0.073	c-0.27-0.061-0.439-0.328-0.378-0.597c0.061-0.269,0.333-0.442,0.597-0.378l0.324,0.071c0.229,0.05,0.459,0.101,0.686,0.156	c0.269,0.065,0.433,0.336,0.366,0.604C30.93,21.028,30.726,21.181,30.5,21.181z"/><path fill="#78cdd4" d="M82.244,85c-2.689,0-4.057-1.017-5.378-2c-1.324-0.984-2.69-2-5.378-2s-4.054,1.017-5.374,2	c-1.323,0.983-2.688,2-5.375,2c-2.689,0-4.056-1.017-5.377-2.001C54.041,82.016,52.675,81,49.987,81c-2.687,0-4.053,1.017-5.373,2	c-1.323,0.983-2.688,2-5.375,2c-2.686,0-4.051-1.016-5.371-1.998C32.545,82.017,31.179,81,28.493,81c-2.687,0-4.052,1.017-5.371,2	c-1.323,0.984-2.688,2-5.374,2c-2.687,0-4.052-1.017-5.373-1.999C11.053,82.017,9.687,81,7,81V64c2.687,0,4.052,1.017,5.373,1.999	C13.695,66.983,15.062,68,17.748,68s4.053-1.017,5.373-2s2.685-2,5.372-2c2.686,0,4.051,1.016,5.371,1.998	C35.188,66.983,36.554,68,39.239,68c2.687,0,4.053-1.017,5.373-2c1.323-0.983,2.688-2,5.375-2c2.689,0,4.056,1.017,5.377,2.001	C56.686,66.984,58.052,68,60.739,68c2.686,0,4.051-1.016,5.371-1.998C67.434,65.017,68.8,64,71.488,64c2.689,0,4.057,1.017,5.378,2	c1.324,0.984,2.69,2,5.378,2s4.054-1.016,5.375-1.998C88.943,65.017,90.311,64,93,64v17c-2.688,0-4.054,1.016-5.375,1.998	C86.301,83.983,84.934,85,82.244,85z"/><path fill="#1f212b" d="M82.244,69c-3.021,0-4.59-1.168-5.975-2.197C74.969,65.835,73.846,65,71.488,65	c-2.356,0-3.479,0.835-4.778,1.803C65.326,67.832,63.758,69,60.739,69c-3.02,0-4.589-1.168-5.973-2.197	C53.467,65.835,52.344,65,49.987,65c-2.355,0-3.478,0.835-4.777,1.802C43.826,67.832,42.258,69,39.239,69	c-3.018,0-4.586-1.168-5.97-2.198C31.97,65.835,30.849,65,28.493,65c-2.354,0-3.477,0.835-4.774,1.802	C22.335,67.832,20.766,69,17.748,69c-3.019,0-4.587-1.168-5.971-2.198C10.478,65.835,9.355,65,7,65c-0.553,0-1-0.447-1-1	s0.447-1,1-1c3.019,0,4.587,1.168,5.971,2.198c1.3,0.967,2.422,1.802,4.777,1.802s3.477-0.835,4.776-1.802	C23.907,64.168,25.476,63,28.493,63s4.586,1.168,5.97,2.198c1.3,0.967,2.421,1.802,4.776,1.802s3.478-0.835,4.777-1.802	C45.4,64.168,46.969,63,49.987,63c3.02,0,4.589,1.168,5.973,2.197C57.26,66.165,58.383,67,60.739,67	c2.355,0,3.478-0.835,4.777-1.802C66.9,64.168,68.47,63,71.488,63c3.021,0,4.59,1.168,5.975,2.197	C78.764,66.165,79.887,67,82.244,67s3.48-0.835,4.781-1.803C88.41,64.168,89.979,63,93,63c0.553,0,1,0.447,1,1s-0.447,1-1,1	c-2.357,0-3.48,0.835-4.781,1.803C86.834,67.832,85.265,69,82.244,69z"/><path fill="#1f212b" d="M82.244,86c-3.021,0-4.59-1.168-5.975-2.197C74.969,82.835,73.846,82,71.488,82	c-2.356,0-3.479,0.835-4.778,1.803C65.326,84.832,63.758,86,60.739,86c-3.02,0-4.589-1.168-5.973-2.197	C53.467,82.835,52.344,82,49.987,82c-2.355,0-3.478,0.835-4.777,1.802C43.826,84.832,42.258,86,39.239,86	c-3.018,0-4.586-1.168-5.97-2.198C31.97,82.835,30.849,82,28.493,82c-2.354,0-3.477,0.835-4.774,1.802	C22.335,84.832,20.766,86,17.748,86c-3.019,0-4.587-1.168-5.971-2.198C10.478,82.835,9.355,82,7,82c-0.553,0-1-0.447-1-1	s0.447-1,1-1c3.019,0,4.587,1.168,5.971,2.198c1.3,0.967,2.422,1.802,4.777,1.802s3.477-0.835,4.776-1.802	C23.907,81.168,25.476,80,28.493,80s4.586,1.168,5.97,2.198c1.3,0.967,2.421,1.802,4.776,1.802s3.478-0.835,4.777-1.802	C45.4,81.168,46.969,80,49.987,80c3.02,0,4.589,1.168,5.973,2.197C57.26,83.165,58.383,84,60.739,84	c2.355,0,3.478-0.835,4.777-1.802C66.9,81.168,68.47,80,71.488,80c3.021,0,4.59,1.168,5.975,2.197	C78.764,83.165,79.887,84,82.244,84s3.48-0.835,4.781-1.803C88.41,81.168,89.979,80,93,80c0.553,0,1,0.447,1,1s-0.447,1-1,1	c-2.357,0-3.48,0.835-4.781,1.803C86.834,84.832,85.265,86,82.244,86z"/><path fill="#1f212b" d="M82.619,77c-2.889,0-4.402-1.115-5.737-2.099C75.492,73.881,74.293,73,71.738,73	c-2.554,0-3.752,0.881-5.14,1.901C65.262,75.886,63.748,77,60.864,77c-2.882,0-4.397-1.113-5.733-2.096	c-0.855-0.629-1.661-1.223-2.78-1.575c-0.264-0.082-0.41-0.363-0.327-0.626c0.082-0.264,0.363-0.415,0.626-0.327	c1.279,0.401,2.19,1.073,3.073,1.723C57.054,75.076,58.311,76,60.864,76c2.556,0,3.811-0.924,5.14-1.902	C67.407,73.065,68.856,72,71.738,72s4.333,1.065,5.735,2.096C78.804,75.075,80.059,76,82.619,76c0.635,0,1.215-0.06,1.774-0.181	c0.273-0.058,0.536,0.112,0.595,0.382s-0.112,0.536-0.382,0.595C83.977,76.934,83.326,77,82.619,77z"/><path fill="#1f212b" d="M39.114,77c-2.883,0-4.396-1.114-5.732-2.098C31.994,73.881,30.797,73,28.243,73	c-2.024,0-3.206,0.541-4.457,1.414c-0.224,0.155-0.537,0.104-0.696-0.124c-0.158-0.227-0.103-0.538,0.124-0.696	C24.585,72.637,25.965,72,28.243,72c2.882,0,4.33,1.065,5.73,2.096C35.305,75.076,36.56,76,39.114,76s3.812-0.925,5.143-1.903	c1.304-0.96,2.653-1.953,5.22-2.073c0.275-0.038,0.511,0.2,0.522,0.476c0.014,0.275-0.199,0.51-0.476,0.522	c-2.265,0.107-3.436,0.969-4.675,1.88C43.513,75.886,41.997,77,39.114,77z"/><path fill="#1f212b" d="M20.5,76.41c-0.194,0-0.38-0.114-0.461-0.306c-0.107-0.254,0.012-0.547,0.267-0.655	c0.311-0.131,0.616-0.289,0.935-0.482c0.235-0.142,0.543-0.066,0.688,0.168c0.143,0.236,0.067,0.544-0.168,0.688	c-0.36,0.219-0.709,0.397-1.065,0.549C20.631,76.397,20.565,76.41,20.5,76.41z"/><path fill="#1f212b" d="M17.373,77c-2.884,0-4.397-1.114-5.733-2.098C10.252,73.882,9.054,73,6.5,73	C6.224,73,6,72.776,6,72.5S6.224,72,6.5,72c2.882,0,4.331,1.066,5.732,2.097C13.563,75.076,14.817,76,17.373,76	c0.276,0,0.563,0.221,0.563,0.496c0.001,0.276-0.159,0.497-0.436,0.498L17.373,77z"/><path fill="#1f212b" d="M88.5,74.68c-0.155,0-0.309-0.072-0.406-0.208c-0.161-0.225-0.11-0.537,0.114-0.698	C89.456,72.876,90.893,72,93.5,72c0.276,0,0.5,0.224,0.5,0.5S93.776,73,93.5,73c-2.312,0-3.546,0.75-4.708,1.586	C88.703,74.649,88.602,74.68,88.5,74.68z"/></svg>